<?xml version="1.0" standalone="no"?>
<!DOCTYPE svg PUBLIC "-//W3C//DTD SVG 20010904//EN"
 "http://www.w3.org/TR/2001/REC-SVG-20010904/DTD/svg10.dtd">
<svg version="1.0" xmlns="http://www.w3.org/2000/svg"
 width="1017.000000pt" height="1280.000000pt" viewBox="0 0 1017.000000 1280.000000"
 preserveAspectRatio="xMidYMid meet">
<metadata>
Created by potrace 1.15, written by Peter Selinger 2001-2017
</metadata>
<g transform="translate(0.000000,1280.000000) scale(0.100000,-0.100000)"
fill="#3f51b5" stroke="none">
<path d="M5670 12790 c-192 -34 -376 -168 -452 -330 -49 -103 -62 -165 -56
-274 12 -205 126 -376 318 -475 158 -81 46 -76 1570 -76 1270 0 1359 1 1420
18 211 58 376 206 439 394 46 136 34 281 -33 418 -68 137 -200 249 -359 302
l-82 28 -1360 1 c-748 1 -1380 -2 -1405 -6z"/>
<path d="M5306 11069 c-609 -65 -1120 -469 -1318 -1039 -41 -117 -66 -237 -78
-374 l-10 -116 876 -1952 c483 -1074 896 -2000 919 -2058 24 -58 49 -132 56
-165 17 -83 15 -246 -4 -327 -64 -263 -270 -477 -545 -567 -122 -39 -178 -45
-492 -45 -197 -1 -304 -5 -303 -11 1 -9 507 -1190 584 -1366 49 -110 69 -209
69 -334 0 -137 -23 -237 -80 -350 -82 -162 -192 -269 -365 -355 -161 -80 -221
-92 -489 -97 l-229 -5 6 -262 c7 -351 35 -501 136 -726 204 -457 610 -778
1131 -892 l105 -23 1755 0 1755 0 110 22 c310 64 576 200 792 407 270 257 432
580 473 941 8 73 10 1214 8 4230 l-3 4130 -23 96 c-49 214 -140 423 -253 584
-82 115 -259 292 -374 374 -174 123 -403 218 -629 263 l-111 22 -1695 2 c-932
1 -1731 -2 -1774 -7z m2624 -1349 l430 0 0 -460 0 -460 -430 0 -430 0 0 -430
0 -430 -455 0 -455 0 0 430 0 430 -430 0 -430 0 0 460 0 460 430 0 430 0 0
425 0 425 453 2 452 3 3 -427 2 -428 430 0z m390 -8425 l0 -455 -1315 0 -1315
0 0 455 0 455 1315 0 1315 0 0 -455z"/>
<path d="M202 9315 c-167 -52 -253 -259 -170 -408 13 -23 432 -569 931 -1214
499 -644 907 -1174 907 -1177 0 -3 -253 -6 -563 -6 -627 0 -629 0 -705 -66
-105 -89 -136 -239 -75 -358 22 -43 25 -45 1858 -1889 918 -924 1495 -1497
1520 -1510 31 -17 58 -22 120 -22 71 0 86 3 135 31 64 36 123 107 140 170 29
102 31 95 -400 1227 -221 582 -400 1060 -398 1062 3 3 193 0 424 -5 230 -6
534 -11 674 -13 254 -2 255 -2 304 23 106 54 162 156 154 283 -5 71 -18 101
-854 1911 -582 1260 -860 1850 -883 1877 -18 22 -56 52 -85 67 l-51 27 -1470
2 c-1214 1 -1478 -1 -1513 -12z"/>
</g>
</svg>
